<?xml version="1.0" encoding="UTF-8"?>
<svg xmlns="http://www.w3.org/2000/svg" xmlns:xlink="http://www.w3.org/1999/xlink" viewBox="0 0 192 192" width="192px" height="192px">
<g id="surface22632050">
<path style=" stroke:none;fill-rule:nonzero;fill:rgb(98.823529%,74.901962%,58.431375%);fill-opacity:1;" d="M 130.992188 78.148438 C 131.859375 72.480469 127.160156 68.042969 124.640625 63.476562 C 122.800781 60.140625 119.703125 52.609375 114.664062 54.789062 C 111.777344 56.019531 109.597656 58.644531 106.921875 60.300781 C 104.347656 61.902344 101.433594 62.925781 98.441406 61.925781 C 95.210938 60.851562 93.402344 57.964844 90.722656 56.046875 C 88.125 54.210938 85.238281 54.789062 83.6875 57.597656 C 82.035156 60.589844 80.800781 63.6875 78.597656 66.363281 C 76.234375 69.25 73.242188 71.535156 71.484375 74.894531 C 71.457031 74.949219 71.402344 75.027344 71.378906 75.078125 C 71.484375 76.050781 71.585938 76.996094 71.667969 77.941406 C 72.035156 81.957031 72.636719 85.945312 73.03125 89.960938 C 73.714844 96.65625 73.738281 103.480469 75.421875 110.015625 C 76.890625 115.714844 79.4375 121.226562 83.582031 125.480469 C 84.003906 125.898438 84.421875 126.292969 84.84375 126.6875 C 84.976562 126.765625 85.132812 126.894531 85.238281 127.054688 C 89.070312 130.359375 93.585938 132.277344 98.78125 132.671875 C 104.925781 133.117188 111.382812 132.042969 116.867188 129.152344 C 117.8125 128.65625 118.707031 128.128906 119.546875 127.5 C 119.625 127.289062 119.730469 127.105469 119.835938 126.921875 C 120.148438 126.398438 120.648438 126.1875 121.148438 126.1875 C 122.117188 125.296875 122.957031 124.296875 123.695312 123.167969 C 125.375 120.542969 126.371094 117.578125 126.976562 114.53125 C 127.605469 111.382812 127.921875 108.207031 128.289062 105.03125 C 128.707031 101.484375 129.3125 97.96875 129.835938 94.453125 C 130.570312 89.464844 131.253906 84.449219 131.359375 79.4375 C 131.097656 79.09375 130.914062 78.675781 130.992188 78.148438 Z M 95.527344 95.921875 C 95.683594 93.191406 96.105469 90.515625 96.234375 87.785156 C 96.367188 85.238281 96.5 82.691406 96.761719 80.144531 C 96.761719 80.117188 96.761719 80.09375 96.761719 80.039062 L 96.789062 79.75 C 96.972656 77.914062 99.886719 77.992188 99.675781 79.828125 C 99.414062 82.191406 99.253906 84.527344 99.175781 86.917969 C 99.070312 89.488281 98.730469 92.011719 98.519531 94.554688 C 98.335938 96.867188 98.203125 99.28125 98.597656 101.566406 C 98.808594 102.796875 99.148438 104.296875 100.015625 105.34375 C 100.410156 105.292969 100.855469 105.398438 101.199219 105.84375 L 101.90625 106.710938 C 102.71875 107.707031 101.855469 109.675781 100.410156 109.074219 C 95.449219 106.945312 95.265625 100.566406 95.527344 95.921875 Z M 89.253906 81.535156 C 88.832031 82.429688 88.074219 83.164062 87.152344 83.582031 C 85.761719 84.238281 84.136719 84.320312 82.953125 83.214844 C 81.929688 82.246094 81.824219 80.773438 82.007812 79.382812 C 81.40625 79.644531 80.828125 79.960938 80.382812 80.222656 C 78.78125 81.167969 77.414062 78.597656 79.015625 77.675781 C 83.191406 75.234375 90.226562 73.898438 91.617188 80.144531 C 91.984375 81.613281 90.171875 82.324219 89.253906 81.535156 Z M 105.660156 120.675781 C 103.085938 123.429688 98.941406 121.359375 96 120.515625 C 94.214844 119.992188 95.054688 117.234375 96.839844 117.761719 C 98.597656 118.285156 102.140625 120.230469 103.691406 118.574219 C 104.976562 117.183594 106.921875 119.308594 105.660156 120.675781 Z M 118.574219 81.902344 C 118.445312 81.667969 118.285156 81.457031 118.101562 81.222656 C 118.101562 81.40625 118.101562 81.589844 118.078125 81.746094 C 117.839844 83.558594 116.132812 85.210938 114.21875 84.921875 C 112.457031 84.660156 111.25 82.847656 111.410156 81.089844 C 111.433594 80.878906 111.460938 80.671875 111.515625 80.460938 C 111.355469 80.566406 111.226562 80.695312 111.09375 80.828125 C 109.78125 82.140625 107.839844 80.015625 109.152344 78.703125 C 111.171875 76.679688 114.191406 76.179688 116.816406 77.019531 C 117.839844 77.203125 118.757812 77.78125 119.546875 78.515625 C 120.203125 79.070312 120.753906 79.75 121.148438 80.539062 C 122.015625 82.21875 119.574219 83.480469 118.574219 81.902344 Z M 118.574219 81.902344 "/>
<path style=" stroke:none;fill-rule:nonzero;fill:rgb(98.823529%,74.901962%,58.431375%);fill-opacity:1;" d="M 120.910156 138.761719 C 120.910156 138.050781 120.359375 136.898438 120.148438 136.136719 C 119.835938 134.980469 119.546875 133.828125 119.363281 132.644531 C 119.285156 132.171875 119.203125 131.648438 119.179688 131.148438 C 118.179688 131.726562 117.132812 132.25 116.027344 132.722656 C 110.28125 135.085938 103.847656 136.164062 97.652344 135.425781 C 93.714844 134.953125 90.121094 133.746094 86.890625 131.804688 C 87.128906 134.0625 86.890625 136.453125 86.8125 138.65625 C 86.917969 138.789062 86.996094 138.945312 87.046875 139.15625 C 88.964844 145.558594 96.945312 145.902344 102.457031 145.402344 C 105.609375 145.113281 108.757812 144.5625 111.800781 143.695312 C 113.167969 143.328125 114.480469 142.882812 115.820312 142.410156 C 117.65625 141.78125 119.808594 141.019531 120.859375 139.261719 C 120.886719 139.234375 120.910156 139.179688 120.9375 139.15625 C 120.9375 138.996094 120.910156 138.890625 120.910156 138.761719 Z M 120.910156 138.761719 "/>
<path style=" stroke:none;fill-rule:nonzero;fill:rgb(7.843138%,71.372551%,72.549021%);fill-opacity:1;" d="M 135.480469 150.441406 C 135.453125 150.417969 135.425781 150.390625 135.402344 150.363281 C 135.058594 150.074219 134.902344 149.761719 134.875 149.417969 C 132.933594 147.292969 130.546875 145.824219 127.921875 144.5625 C 126.136719 143.722656 124.191406 142.804688 122.828125 141.386719 C 120.515625 144.246094 116.449219 145.351562 113.011719 146.296875 C 109.464844 147.292969 105.792969 148.027344 102.117188 148.265625 C 96.105469 148.683594 88.519531 147.84375 85.316406 142.332031 C 83.296875 145.085938 80.066406 146.871094 77.019531 148.394531 C 72.585938 150.601562 67.886719 152.304688 63.660156 154.957031 C 63.609375 154.984375 63.554688 155.011719 63.503906 155.035156 C 63.527344 155.140625 63.582031 155.246094 63.632812 155.351562 C 64.078125 156.347656 65.078125 156.769531 66.046875 157.164062 C 69.382812 158.5 73.082031 158.421875 76.601562 158.449219 C 84.449219 158.5 92.351562 158.027344 100.171875 157.292969 C 107.96875 156.53125 115.820312 155.824219 123.5625 154.722656 C 126.554688 154.300781 130.019531 154.144531 132.566406 152.960938 C 133.433594 152.570312 134.378906 152.042969 135.058594 151.359375 C 135.480469 150.941406 135.820312 150.785156 135.480469 150.441406 Z M 135.480469 150.441406 "/>
<path style=" stroke:none;fill-rule:nonzero;fill:rgb(98.823529%,74.901962%,58.431375%);fill-opacity:1;" d="M 70.144531 89.570312 C 69.800781 86.390625 69.410156 83.214844 69.042969 80.039062 C 68.960938 80.015625 68.859375 79.988281 68.777344 79.960938 C 68.488281 79.855469 68.015625 79.777344 67.808594 79.777344 C 67.464844 79.804688 67.519531 79.75 67.175781 80.039062 C 67.097656 80.09375 67.152344 80.039062 66.941406 80.300781 C 66.703125 80.589844 66.890625 80.300781 66.703125 80.671875 C 66.46875 81.117188 66.363281 81.378906 66.285156 81.71875 C 65.65625 84.160156 65.8125 86.8125 66.179688 89.28125 C 66.574219 91.90625 67.230469 94.554688 68.410156 96.945312 C 68.832031 97.757812 69.328125 98.546875 69.933594 99.019531 C 70.144531 99.175781 70.25 99.230469 70.433594 99.253906 C 70.378906 99.253906 70.484375 99.230469 70.457031 99.253906 C 70.5625 99.230469 70.667969 99.175781 70.800781 99.125 C 70.851562 99.097656 70.90625 99.070312 70.957031 99.070312 C 70.667969 95.894531 70.457031 92.71875 70.144531 89.570312 Z M 70.144531 89.570312 "/>
<path style=" stroke:none;fill-rule:nonzero;fill:rgb(60.784316%,34.901962%,71.372551%);fill-opacity:1;" d="M 133.039062 50.640625 C 129.730469 45.023438 124.640625 40.925781 118.523438 38.75 C 113.296875 36.886719 107.628906 36.332031 102.117188 36.648438 C 96.234375 36.988281 90.144531 38.09375 84.792969 40.640625 C 78.859375 43.5 73.554688 48.09375 70.273438 53.816406 C 66.179688 60.929688 65.996094 68.777344 67.914062 76.574219 C 67.9375 76.707031 67.964844 76.8125 67.964844 76.941406 C 68.226562 76.941406 68.464844 76.96875 68.726562 76.996094 C 68.621094 75.917969 68.515625 74.816406 68.4375 73.714844 L 68.832031 73.765625 C 68.859375 73.6875 68.882812 73.609375 68.9375 73.53125 C 71.140625 69.277344 75.183594 66.625 77.730469 62.664062 C 78.910156 60.796875 79.777344 58.828125 80.800781 56.859375 C 81.589844 55.339844 82.664062 53.710938 84.238281 52.898438 C 87.101562 51.402344 90.144531 51.898438 92.667969 53.816406 C 95.082031 55.652344 97.207031 59.039062 100.4375 59.355469 C 103.480469 59.671875 106.238281 57.332031 108.441406 55.574219 C 110.671875 53.816406 113.167969 51.480469 116.1875 51.453125 C 121.699219 51.402344 124.507812 57.125 126.765625 61.296875 C 129.441406 66.207031 133.722656 70.695312 133.957031 76.390625 C 134.296875 76.285156 134.640625 76.234375 135.007812 76.207031 C 135.898438 67.492188 137.738281 58.671875 133.039062 50.640625 Z M 133.039062 50.640625 "/>
<path style=" stroke:none;fill-rule:nonzero;fill:rgb(98.823529%,74.901962%,58.431375%);fill-opacity:1;" d="M 137.527344 83.03125 C 137.394531 81.851562 137.238281 80.460938 136.425781 79.515625 C 135.898438 78.910156 135.035156 79.015625 134.296875 79.359375 C 134.167969 85.078125 133.355469 90.722656 132.488281 96.367188 C 136.136719 98.152344 137.421875 91.40625 137.710938 88.9375 C 137.949219 87.023438 137.765625 85 137.527344 83.03125 Z M 137.527344 83.03125 "/>
<path style=" stroke:none;fill-rule:nonzero;fill:rgb(0%,0%,0%);fill-opacity:1;" d="M 128.472656 120.019531 C 130.730469 114.058594 130.78125 107.496094 131.726562 101.277344 C 131.832031 100.644531 131.910156 99.988281 132.015625 99.359375 C 137.554688 101.40625 140.101562 93.402344 140.574219 89.070312 C 140.886719 86.3125 140.625 83.296875 139.996094 80.589844 C 139.679688 79.148438 138.945312 77.835938 137.789062 76.96875 C 138.550781 69.382812 140.152344 61.742188 137.789062 54.261719 C 136.003906 48.617188 132.066406 43.527344 127.289062 40.113281 C 118.101562 33.523438 105.921875 32.710938 95.082031 34.601562 C 85.839844 36.203125 77.492188 40.269531 71.296875 47.4375 C 67.9375 51.324219 65.472656 55.96875 64.367188 61.007812 C 63.136719 66.496094 63.816406 72.21875 65.15625 77.625 C 65.183594 77.757812 65.234375 77.859375 65.289062 77.964844 C 64.710938 78.4375 64.210938 79.09375 63.871094 79.933594 C 62.664062 82.824219 62.871094 86.289062 63.265625 89.304688 C 63.710938 92.5625 64.550781 95.816406 66.101562 98.703125 C 67.074219 100.515625 68.988281 102.667969 71.195312 102.039062 C 71.507812 105.054688 71.953125 108.074219 72.714844 111.015625 C 74.292969 117.078125 77.152344 122.828125 81.484375 127.421875 C 82.007812 127.972656 82.535156 128.496094 83.109375 128.996094 C 84.003906 130.519531 84.03125 132.460938 84.054688 134.195312 C 84.082031 135.796875 83.976562 137.394531 83.925781 138.996094 C 82.246094 142.828125 78.046875 144.773438 74.449219 146.503906 C 71.011719 148.132812 67.464844 149.578125 64.132812 151.386719 C 63.949219 151.335938 63.765625 151.28125 63.554688 151.308594 C 60.902344 151.441406 60.117188 153.882812 60.851562 156.113281 C 61.742188 158.84375 64.65625 159.890625 67.203125 160.601562 C 70.929688 161.625 75.105469 161.414062 78.910156 161.390625 C 83.191406 161.363281 87.496094 161.152344 91.773438 160.917969 C 100.277344 160.417969 108.757812 159.316406 117.234375 158.394531 C 121.4375 157.949219 125.609375 157.503906 129.757812 156.742188 C 132.199219 156.296875 134.378906 155.585938 136.371094 154.089844 C 137.867188 152.960938 138.972656 151.152344 138.316406 149.578125 C 138.316406 149.3125 138.234375 149.050781 138.078125 148.839844 C 136.214844 146.480469 133.984375 144.640625 131.359375 143.171875 C 129.074219 141.886719 125.03125 140.914062 124.0625 138.15625 C 123.984375 137.949219 123.902344 137.789062 123.773438 137.660156 C 123.746094 137.210938 123.5625 136.898438 123.273438 136.714844 C 123.246094 136.660156 123.246094 136.609375 123.222656 136.582031 C 122.933594 135.585938 122.671875 134.585938 122.433594 133.589844 C 122.144531 132.304688 121.75 130.597656 122.066406 129.207031 C 124.925781 126.738281 127.078125 123.71875 128.472656 120.019531 Z M 136.425781 79.542969 C 137.238281 80.460938 137.394531 81.878906 137.527344 83.058594 C 137.765625 85 137.949219 87.046875 137.710938 88.992188 C 137.421875 91.433594 136.136719 98.179688 132.488281 96.421875 C 133.355469 90.777344 134.195312 85.105469 134.296875 79.410156 C 135.035156 79.042969 135.898438 78.9375 136.425781 79.542969 Z M 70.773438 99.097656 C 70.667969 99.148438 70.5625 99.175781 70.433594 99.230469 C 70.457031 99.203125 70.378906 99.230469 70.40625 99.230469 C 70.222656 99.203125 70.144531 99.175781 69.90625 98.992188 C 69.304688 98.519531 68.804688 97.734375 68.386719 96.917969 C 67.203125 94.554688 66.519531 91.878906 66.152344 89.253906 C 65.785156 86.761719 65.628906 84.136719 66.257812 81.695312 C 66.335938 81.378906 66.441406 81.089844 66.679688 80.644531 C 66.863281 80.300781 66.679688 80.589844 66.914062 80.277344 C 67.125 80.015625 67.097656 80.066406 67.152344 80.015625 C 67.492188 79.75 67.441406 79.804688 67.78125 79.75 C 67.992188 79.726562 68.464844 79.804688 68.753906 79.933594 C 68.832031 79.960938 68.9375 79.988281 69.015625 80.015625 C 69.382812 83.191406 69.777344 86.367188 70.117188 89.542969 C 70.457031 92.691406 70.640625 95.84375 70.90625 99.019531 C 70.878906 99.070312 70.828125 99.070312 70.773438 99.097656 Z M 68.910156 73.582031 C 68.859375 73.660156 68.832031 73.738281 68.804688 73.820312 L 68.410156 73.765625 C 68.488281 74.867188 68.59375 75.945312 68.699219 77.046875 C 68.4375 77.019531 68.175781 76.996094 67.9375 76.996094 C 67.9375 76.890625 67.914062 76.757812 67.886719 76.628906 C 65.96875 68.804688 66.179688 60.957031 70.25 53.867188 C 73.554688 48.144531 78.832031 43.527344 84.765625 40.691406 C 90.121094 38.117188 96.210938 37.042969 102.089844 36.703125 C 107.601562 36.386719 113.273438 36.910156 118.496094 38.800781 C 124.613281 40.980469 129.703125 45.074219 133.011719 50.691406 C 137.710938 58.726562 135.875 67.546875 134.980469 76.285156 C 134.640625 76.3125 134.273438 76.390625 133.929688 76.46875 C 133.695312 70.773438 129.417969 66.285156 126.738281 61.375 C 124.480469 57.203125 121.671875 51.507812 116.160156 51.53125 C 113.113281 51.558594 110.648438 53.894531 108.417969 55.652344 C 106.183594 57.414062 103.429688 59.75 100.410156 59.433594 C 97.179688 59.117188 95.054688 55.707031 92.640625 53.894531 C 90.121094 51.980469 87.046875 51.480469 84.214844 52.976562 C 82.640625 53.789062 81.5625 55.417969 80.773438 56.941406 C 79.75 58.882812 78.910156 60.878906 77.703125 62.742188 C 75.15625 66.679688 71.113281 69.328125 68.910156 73.582031 Z M 122.828125 141.386719 C 124.21875 142.804688 126.160156 143.722656 127.921875 144.5625 C 130.546875 145.824219 132.933594 147.292969 134.875 149.417969 C 134.902344 149.761719 135.035156 150.101562 135.402344 150.363281 C 135.425781 150.390625 135.453125 150.417969 135.480469 150.441406 C 135.820312 150.757812 135.480469 150.914062 135.058594 151.359375 C 134.378906 152.042969 133.433594 152.542969 132.566406 152.960938 C 130.019531 154.144531 126.554688 154.273438 123.5625 154.722656 C 115.820312 155.851562 107.96875 156.558594 100.171875 157.292969 C 92.351562 158.054688 84.449219 158.527344 76.601562 158.449219 C 73.082031 158.421875 69.382812 158.476562 66.046875 157.164062 C 65.078125 156.769531 64.078125 156.347656 63.632812 155.351562 C 63.582031 155.246094 63.554688 155.140625 63.503906 155.035156 C 63.554688 155.011719 63.609375 154.984375 63.660156 154.957031 C 67.886719 152.304688 72.558594 150.601562 77.019531 148.394531 C 80.066406 146.871094 83.296875 145.085938 85.316406 142.332031 C 88.519531 147.871094 96.105469 148.683594 102.117188 148.265625 C 105.792969 148 109.464844 147.292969 113.011719 146.296875 C 116.449219 145.351562 120.515625 144.246094 122.828125 141.386719 Z M 86.890625 131.777344 C 90.121094 133.746094 93.714844 134.929688 97.652344 135.402344 C 103.847656 136.164062 110.304688 135.058594 116.027344 132.699219 C 117.132812 132.25 118.179688 131.726562 119.179688 131.121094 C 119.230469 131.648438 119.308594 132.144531 119.363281 132.617188 C 119.546875 133.800781 119.835938 134.953125 120.148438 136.109375 C 120.359375 136.871094 120.910156 138.027344 120.910156 138.734375 C 120.910156 138.867188 120.9375 138.972656 120.964844 139.078125 C 120.9375 139.101562 120.910156 139.128906 120.886719 139.179688 C 119.835938 140.941406 117.65625 141.703125 115.84375 142.332031 C 114.53125 142.804688 113.195312 143.222656 111.828125 143.617188 C 108.785156 144.484375 105.632812 145.035156 102.484375 145.324219 C 96.945312 145.824219 88.992188 145.480469 87.074219 139.078125 C 87.023438 138.890625 86.945312 138.734375 86.839844 138.578125 C 86.890625 136.425781 87.128906 134.035156 86.890625 131.777344 Z M 121.199219 126.160156 C 120.703125 126.136719 120.203125 126.34375 119.886719 126.894531 C 119.78125 127.078125 119.675781 127.289062 119.597656 127.472656 C 118.757812 128.078125 117.867188 128.628906 116.921875 129.128906 C 111.433594 132.015625 104.976562 133.089844 98.835938 132.644531 C 93.636719 132.25 89.121094 130.335938 85.289062 127.027344 C 85.160156 126.871094 85.027344 126.765625 84.894531 126.660156 C 84.476562 126.265625 84.054688 125.871094 83.636719 125.453125 C 79.488281 121.199219 76.941406 115.6875 75.472656 109.992188 C 73.792969 103.453125 73.765625 96.605469 73.082031 89.9375 C 72.664062 85.921875 72.085938 81.929688 71.71875 77.914062 C 71.640625 76.96875 71.535156 76.023438 71.429688 75.050781 C 71.457031 75 71.507812 74.949219 71.535156 74.867188 C 73.292969 71.507812 76.285156 69.226562 78.648438 66.335938 C 80.855469 63.660156 82.085938 60.5625 83.742188 57.570312 C 85.289062 54.789062 88.203125 54.183594 90.777344 56.019531 C 93.453125 57.910156 95.265625 60.824219 98.492188 61.902344 C 101.484375 62.898438 104.398438 61.875 106.972656 60.273438 C 109.625 58.621094 111.828125 55.996094 114.714844 54.761719 C 119.757812 52.582031 122.855469 60.117188 124.691406 63.449219 C 127.183594 68.015625 131.910156 72.453125 131.042969 78.125 C 130.964844 78.648438 131.148438 79.070312 131.4375 79.359375 C 131.332031 84.371094 130.648438 89.410156 129.914062 94.371094 C 129.390625 97.890625 128.785156 101.40625 128.367188 104.953125 C 128 108.128906 127.683594 111.328125 127.054688 114.453125 C 126.421875 117.5 125.453125 120.464844 123.773438 123.089844 C 123.011719 124.269531 122.171875 125.269531 121.199219 126.160156 Z M 121.199219 126.160156 "/>
<path style=" stroke:none;fill-rule:nonzero;fill:rgb(0%,0%,0%);fill-opacity:1;" d="M 101.878906 106.734375 L 101.171875 105.871094 C 100.828125 105.449219 100.410156 105.320312 99.988281 105.371094 C 99.148438 104.347656 98.808594 102.851562 98.574219 101.589844 C 98.179688 99.28125 98.308594 96.890625 98.492188 94.582031 C 98.703125 92.035156 99.019531 89.515625 99.148438 86.945312 C 99.253906 84.582031 99.414062 82.21875 99.648438 79.855469 C 99.859375 78.019531 96.972656 77.941406 96.761719 79.777344 L 96.734375 80.066406 C 96.734375 80.09375 96.734375 80.117188 96.734375 80.171875 C 96.472656 82.71875 96.339844 85.238281 96.210938 87.808594 C 96.078125 90.539062 95.660156 93.21875 95.5 95.949219 C 95.238281 100.566406 95.421875 106.945312 100.359375 109.097656 C 101.800781 109.703125 102.667969 107.734375 101.878906 106.734375 Z M 103.71875 118.546875 C 102.167969 120.230469 98.625 118.261719 96.867188 117.734375 C 95.082031 117.210938 94.242188 119.964844 96.027344 120.492188 C 98.964844 121.332031 103.140625 123.40625 105.6875 120.648438 C 106.921875 119.308594 104.976562 117.183594 103.71875 118.546875 Z M 121.148438 80.566406 C 120.726562 79.777344 120.175781 79.121094 119.546875 78.542969 C 118.757812 77.808594 117.839844 77.230469 116.816406 77.046875 C 114.191406 76.234375 111.171875 76.707031 109.152344 78.726562 C 107.839844 80.039062 109.808594 82.167969 111.09375 80.855469 C 111.226562 80.722656 111.382812 80.589844 111.515625 80.484375 C 111.460938 80.695312 111.433594 80.90625 111.410156 81.117188 C 111.25 82.875 112.457031 84.6875 114.21875 84.949219 C 116.132812 85.238281 117.839844 83.582031 118.078125 81.773438 C 118.101562 81.589844 118.101562 81.40625 118.101562 81.246094 C 118.261719 81.457031 118.417969 81.695312 118.574219 81.929688 C 119.574219 83.480469 122.015625 82.21875 121.148438 80.566406 Z M 91.640625 80.117188 C 90.25 73.871094 83.214844 75.210938 79.042969 77.652344 C 77.441406 78.597656 78.78125 81.140625 80.40625 80.199219 C 80.878906 79.933594 81.429688 79.621094 82.035156 79.359375 C 81.851562 80.75 81.957031 82.21875 82.980469 83.191406 C 84.160156 84.292969 85.789062 84.214844 87.179688 83.558594 C 88.074219 83.136719 88.859375 82.402344 89.28125 81.511719 C 90.171875 82.324219 91.984375 81.613281 91.640625 80.117188 Z M 91.640625 80.117188 "/>
</g>
</svg>
